<svg xmlns="http://www.w3.org/2000/svg" xmlns:xlink="http://www.w3.org/1999/xlink" width="1088" height="263.512" viewBox="0 0 1088 263.512"><defs><linearGradient id="a" y1="0.5" x2="1" y2="0.5" gradientUnits="objectBoundingBox"><stop offset="0" stop-color="#e6173c"/><stop offset="0.057" stop-color="#ea3332"/><stop offset="0.116" stop-color="#ed492a"/><stop offset="0.174" stop-color="#ee5626"/><stop offset="0.227" stop-color="#ef5a24"/><stop offset="0.281" stop-color="#f06126"/><stop offset="0.36" stop-color="#f2752b"/><stop offset="0.453" stop-color="#f69434"/><stop offset="0.517" stop-color="#f9ae3b"/><stop offset="0.75" stop-color="#3496c2"/><stop offset="1" stop-color="#522783"/></linearGradient></defs><path d="M424.12,408.26h42v263h-42Zm396,41v-41h-248c-9,0-69.5-2.5-69.5,64.5v129c0,5-3,70,64,70h256v-40h-256c-6,0-23.5-4-23.5-33v-118c0-11-3.5-31,28.5-31S820.12,449.26,820.12,449.26Zm342,32c0,69-41,80-62,80h-201v110h-41v-263h230C1112.12,408.26,1162.12,412.26,1162.12,481.26Zm-41.5,3.5c0-34-1-35-46-35h-176v71h198C1109.62,520.76,1120.62,518.76,1120.62,484.76Zm78.5,121.5c0,52,39,65,59,65h254v-40h-250c-19,0-23-15-23-24v-198h-40Z" transform="translate(-424.12 -408.248)" fill="url(#a)"/></svg>